# xmcd
#
# Track frame offsets:
#	150
#	5776
#	19420
#	30783
#	36162
#	50222
#	63039
#	75304
#	88967
#	101254
#	113623
#	127179
#	140651
#	153707
#	164586
#	176411
#	190004
#	203682
#	215945
#	226684
#	238998
#	250250
#	262615
#	276069
#	289586
#	302058
#	314750
#	325833
#	337683
#	350511
#	364081
#	375911
#
# Disc length: 5170 seconds
# Revision: 3
# Processed by: cddbd v1.5.2PL0 Copyright (c) Steve Scherf et al.
# Submitted via: dBpowerAMP V12.0
#
DISCID=c8143020
DTITLE=Various Artist - The Sun Blues Box 4 - Selling My Stuff
DYEAR=2013
DGENRE=Blues
TTITLE0=Jackie Boy and Little Walter - Selling My Whiskey
TTITLE1=Johnny London, Alto Wizard - Drivin Slow
TTITLE2=Johnny London, Alto Wizard - Flat Tire
TTITLE3=Walter Bradford and The Big City Four - Untitled Blues
TTITLE4=Handy Jackson - Got My Application Baby
TTITLE5=Handy Jackson - Trouble (Will Bring You Down)
TTITLE6=Joe Hill Louis - We All Gotta Go Sometime
TTITLE7=Joe Hill Louis - She May Be Yours (But She Comes To See Me Sometime)
TTITLE8=Willie Nix, The Memphis Blues Boy - Seems Like A Million Years
TTITLE9=Willie Nix, The Memphis Blues Boy - Baker Shop Boogie
TTITLE10=Jimmy and Walter - Easy
TTITLE11=Jimmy DeBerry - Before Long
TTITLE12=Rufus 'Hound Dog' Thomas Jr - Bear Cat
TTITLE13=Rufus 'Hound Dog' Thomas Jr - Walkin' In The Rain
TTITLE14=D.A. Hunt - Greyhound Blues
TTITLE15=D.A. Hunt - Lonesome Old Jail
TTITLE16=Big Memphis Ma Rainey, Onzie Horne Combo - Call Me Anything (But Call Me)
TTITLE17=Big Memphis Ma Rainey, Onzie Horne Combo - Baby, No No!
TTITLE18=Jimmy DeBerry - Take A Little Chance
TTITLE19=Jimmy DeBerry - Time Has Made A Change
TTITLE20=Prisonaires, The - Baby Please
TTITLE21=Prisonaires, The - Just Walkin' In The Rain
TTITLE22=Little Junior's Blue Flames - Feelin' Good
TTITLE23=Little Junior's Blue Flames - Fussin' And Fightin' Blues
TTITLE24=Rufus Thomas Jr - Save That Money
TTITLE25=Rufus Thomas Jr - Tiger Man (King Of The Jungle)
TTITLE26=Little Junior's Blue Flames - Mystery Train
TTITLE27=Little Junior's Blue Flames - Love My Baby
TTITLE28=Doctor Ross - Come Back Baby
TTITLE29=Doctor Ross - Chicago Breakdown
TTITLE30=Hot 'Shot' Love - Wolf Call Boogie
TTITLE31=Hot 'Shot' Love - Harmonica Jam
EXTD=
EXTT0=
EXTT1=
EXTT2=
EXTT3=
EXTT4=
EXTT5=
EXTT6=
EXTT7=
EXTT8=
EXTT9=
EXTT10=
EXTT11=
EXTT12=
EXTT13=
EXTT14=
EXTT15=
EXTT16=
EXTT17=
EXTT18=
EXTT19=
EXTT20=
EXTT21=
EXTT22=
EXTT23=
EXTT24=
EXTT25=
EXTT26=
EXTT27=
EXTT28=
EXTT29=
EXTT30=
EXTT31=
PLAYORDER=
